# xmcd
#
# Track frame offsets:
#	150
#	12804
#	23350
#	35345
#	44773
#	60686
#	68727
#	84972
#	96600
#	109470
#	118785
#	133706
#	147176
#
# Disc length: 2266 seconds
#
# Revision: 1
# Processed by: cddbd v1.4PL0 Copyright (c) Steve Scherf et al.
# Submitted via: CDmax 2.0
#
DISCID=b208d80d
DTITLE=Klaus Paul Quintet - Beautiful ground
DYEAR=2002
DGENRE=Americana
TTITLE0=Music will kill you
TTITLE1=Another round around the wheel
TTITLE2=The day you cut your wrist
TTITLE3=Beautiful ground
TTITLE4=My backyard
TTITLE5=Waltz #4
TTITLE6=HipHop PopStar
TTITLE7=The monkey
TTITLE8=THe way we talk
TTITLE9=Instrumental #9
TTITLE10=No big deal
TTITLE11=Kooky bag
TTITLE12=Alone (in my fuckin' room)
EXTD=
EXTT0=
EXTT1=
EXTT2=
EXTT3=
EXTT4=
EXTT5=
EXTT6=
EXTT7=
EXTT8=
EXTT9=
EXTT10=
EXTT11=
EXTT12=
PLAYORDER=
